<mxfile host="app.diagrams.net" modified="2023-04-04T18:30:47.407Z" agent="Mozilla/5.0 (Windows NT 10.0; Win64; x64) AppleWebKit/537.36 (KHTML, like Gecko) Chrome/109.0.0.0 Safari/537.36" etag="j_8qsdmNLkddy80fhnX-" version="21.1.4" type="device">
  <diagram name="PÃ¡gina-1" id="wLHGvHcfwqgud8jhLcdy">
    <mxGraphModel dx="1114" dy="616" grid="1" gridSize="10" guides="1" tooltips="1" connect="1" arrows="1" fold="1" page="1" pageScale="1" pageWidth="827" pageHeight="1169" math="0" shadow="0">
      <root>
        <mxCell id="0" />
        <mxCell id="1" parent="0" />
        <mxCell id="9bghP-CymGF3zCi6RcQB-3" value="" style="edgeStyle=orthogonalEdgeStyle;rounded=0;orthogonalLoop=1;jettySize=auto;html=1;" edge="1" parent="1" source="9bghP-CymGF3zCi6RcQB-1" target="9bghP-CymGF3zCi6RcQB-2">
          <mxGeometry relative="1" as="geometry" />
        </mxCell>
        <mxCell id="9bghP-CymGF3zCi6RcQB-1" value="&lt;b&gt;INICIO&lt;/b&gt;" style="ellipse;whiteSpace=wrap;html=1;" vertex="1" parent="1">
          <mxGeometry x="350" y="280" width="120" height="80" as="geometry" />
        </mxCell>
        <mxCell id="9bghP-CymGF3zCi6RcQB-5" value="" style="edgeStyle=orthogonalEdgeStyle;rounded=0;orthogonalLoop=1;jettySize=auto;html=1;" edge="1" parent="1" source="9bghP-CymGF3zCi6RcQB-2" target="9bghP-CymGF3zCi6RcQB-4">
          <mxGeometry relative="1" as="geometry" />
        </mxCell>
        <mxCell id="9bghP-CymGF3zCi6RcQB-2" value="&lt;br&gt;Print &quot;Hola Mundo!&quot;" style="shape=document;whiteSpace=wrap;html=1;boundedLbl=1;" vertex="1" parent="1">
          <mxGeometry x="350" y="440" width="120" height="80" as="geometry" />
        </mxCell>
        <mxCell id="9bghP-CymGF3zCi6RcQB-4" value="&lt;b&gt;FIN&lt;/b&gt;" style="ellipse;whiteSpace=wrap;html=1;" vertex="1" parent="1">
          <mxGeometry x="340" y="600" width="140" height="80" as="geometry" />
        </mxCell>
      </root>
    </mxGraphModel>
  </diagram>
</mxfile>
